<svg width="24" height="24" viewBox="0 0 24 24" fill="none" xmlns="http://www.w3.org/2000/svg">
<path fill-rule="evenodd" clip-rule="evenodd" d="M4.6066 17.2929C4.21608 17.6834 4.21608 18.3166 4.6066 18.7071C4.99712 19.0976 5.63029 19.0976 6.02081 18.7071L11.6568 13.0711L17.2929 18.7071C17.6834 19.0976 18.3166 19.0976 18.7071 18.7071C19.0976 18.3166 19.0976 17.6834 18.7071 17.2929L13.0711 11.6568L18.7071 6.0208C19.0976 5.63027 19.0976 4.99711 18.7071 4.60658C18.3166 4.21606 17.6834 4.21606 17.2929 4.60658L11.6568 10.2426L6.02081 4.6066C5.63029 4.21607 4.99712 4.21607 4.6066 4.6066C4.21607 4.99712 4.21607 5.63029 4.6066 6.02081L10.2426 11.6568L4.6066 17.2929Z" fill="#F3F7FF"/>
</svg>
