<svg width="24" height="24" viewBox="0 0 24 24" fill="none" xmlns="http://www.w3.org/2000/svg">
<path fill-rule="evenodd" clip-rule="evenodd" d="M3.25 4C3.25 3.58579 3.58579 3.25 4 3.25H16C16.4142 3.25 16.75 3.58579 16.75 4V7.25H20C20.4142 7.25 20.75 7.58579 20.75 8V20C20.75 20.4142 20.4142 20.75 20 20.75H7C6.58579 20.75 6.25 20.4142 6.25 20V16.75H4C3.58579 16.75 3.25 16.4142 3.25 16V4ZM7.75 16.75V19.25H19.25V8.75H16.75V16C16.75 16.4142 16.4142 16.75 16 16.75H7.75ZM4.75 4.75V15.25H15.25V4.75H4.75Z" fill="#F3F7FF"/>
</svg>
