<svg width="24" height="24" viewBox="0 0 24 24" fill="none" xmlns="http://www.w3.org/2000/svg">
<path fill-rule="evenodd" clip-rule="evenodd" d="M14.6646 4.32918C14.9187 4.20214 15.2227 4.22956 15.45 4.4L19.45 7.4C19.7814 7.64853 19.8485 8.11863 19.6 8.45C19.3515 8.78138 18.8814 8.84853 18.55 8.6L15.75 6.5V19C15.75 19.4142 15.4142 19.75 15 19.75C14.5858 19.75 14.25 19.4142 14.25 19V5C14.25 4.71593 14.4105 4.45623 14.6646 4.32918ZM9 4.25C9.41421 4.25 9.75 4.58579 9.75 5V19C9.75 19.3034 9.56727 19.5768 9.28701 19.6929C9.00676 19.809 8.68417 19.7448 8.46967 19.5303L4.46967 15.5303C4.17678 15.2374 4.17678 14.7626 4.46967 14.4697C4.76256 14.1768 5.23744 14.1768 5.53033 14.4697L8.25 17.1893V5C8.25 4.58579 8.58579 4.25 9 4.25Z" fill="#F3F7FF"/>
</svg>
