<svg width="24" height="24" viewBox="0 0 24 24" fill="none" xmlns="http://www.w3.org/2000/svg">
<path fill-rule="evenodd" clip-rule="evenodd" d="M9.25 6C9.25 4.48122 10.4812 3.25 12 3.25C13.5188 3.25 14.75 4.48122 14.75 6C14.75 7.25878 13.9043 8.32002 12.75 8.64648V17.1893L14.4697 15.4697C14.7626 15.1768 15.2374 15.1768 15.5303 15.4697C15.8232 15.7626 15.8232 16.2374 15.5303 16.5303L12.5303 19.5303C12.2374 19.8232 11.7626 19.8232 11.4697 19.5303L8.46967 16.5303C8.17678 16.2374 8.17678 15.7626 8.46967 15.4697C8.76256 15.1768 9.23744 15.1768 9.53033 15.4697L11.25 17.1893V8.64648C10.0957 8.32002 9.25 7.25878 9.25 6ZM12 4.75C11.3096 4.75 10.75 5.30964 10.75 6C10.75 6.69036 11.3096 7.25 12 7.25C12.6904 7.25 13.25 6.69036 13.25 6C13.25 5.30964 12.6904 4.75 12 4.75Z" fill="#F3F7FF"/>
</svg>
