<svg width="28" height="22" viewBox="0 0 28 22" fill="none" xmlns="http://www.w3.org/2000/svg">
<path d="M6.65438 10.1492C6.50125 9.6293 6.31313 8.72266 6.31313 8.72266H6.29125C6.29125 8.72266 6.10312 9.6293 5.95 10.1492L5.46437 11.7605H7.13125L6.65438 10.1492ZM26.95 4.125H14.7V17.875H26.95C27.5319 17.875 28 17.4152 28 16.8438V5.15625C28 4.58477 27.5319 4.125 26.95 4.125ZM25.9 9.28125C25.9 9.56484 25.6637 9.79688 25.375 9.79688H24.8762C24.5744 10.8109 23.9269 11.8336 23.0081 12.8004C23.3756 13.0754 23.7562 13.3375 24.15 13.5738C24.3906 13.7199 24.4694 14.025 24.3294 14.2699L23.9838 14.8672C23.835 15.1207 23.5069 15.2023 23.2531 15.052C22.7019 14.7168 22.1812 14.3602 21.7044 13.982C21.2275 14.3559 20.7113 14.7168 20.1556 15.052C19.9019 15.2023 19.5737 15.1207 19.425 14.8672L19.0794 14.2699C18.9394 14.0293 19.0181 13.7199 19.2631 13.5738C19.67 13.3289 20.0506 13.0711 20.405 12.8004C20.0594 12.4395 19.7531 12.0699 19.4862 11.6961C19.3112 11.4512 19.39 11.1117 19.6481 10.9613L19.9325 10.7937L20.2519 10.609C20.4881 10.4715 20.7944 10.5359 20.9519 10.7551C21.1706 11.0559 21.4244 11.3566 21.7131 11.6531C22.3037 11.043 22.7544 10.4113 23.0256 9.79688H18.025C17.7362 9.79688 17.5 9.56484 17.5 9.28125V8.59375C17.5 8.31016 17.7362 8.07812 18.025 8.07812H20.825V7.39062C20.825 7.10703 21.0612 6.875 21.35 6.875H22.05C22.3387 6.875 22.575 7.10703 22.575 7.39062V8.07812H25.375C25.6637 8.07812 25.9 8.31016 25.9 8.59375V9.28125ZM0 5.15625V16.8438C0 17.4152 0.468125 17.875 1.05 17.875H13.3V4.125H1.05C0.468125 4.125 0 4.58477 0 5.15625ZM2.57688 14.4418L5.0925 7.17578C5.16687 6.96523 5.36375 6.82773 5.59125 6.82773H7.01313C7.23625 6.82773 7.4375 6.96953 7.51187 7.17578L10.0275 14.4418C10.1412 14.777 9.89187 15.125 9.52875 15.125H8.52687C8.41365 15.1249 8.30349 15.0889 8.21282 15.0223C8.12215 14.9557 8.05583 14.8621 8.02375 14.7555L7.6125 13.3848H4.97875L4.58062 14.7512C4.515 14.9703 4.30937 15.125 4.0775 15.125H3.07563C2.71688 15.125 2.46313 14.777 2.57688 14.4418Z" fill="white"/>
</svg>
