<svg width="24" height="24" viewBox="0 0 24 24" fill="none" xmlns="http://www.w3.org/2000/svg">
<path d="M12 1C5.92303 1 1 5.92374 1 12C1 18.0763 5.92374 23 12 23C18.077 23 23 18.0763 23 12C23 5.92374 18.0763 1 12 1ZM17.4028 8.53606L15.5974 17.0437C15.4639 17.6469 15.1048 17.7931 14.6038 17.5092L11.8538 15.4824L10.5274 16.7598C10.3812 16.906 10.257 17.0302 9.97316 17.0302L10.1683 14.2312L15.2645 9.62684C15.4866 9.43168 15.2155 9.32097 14.9225 9.51613L8.62406 13.4811L5.90955 12.6337C5.31981 12.4478 5.30632 12.044 6.03374 11.7601L16.6392 7.67026C17.1317 7.49284 17.5617 7.79019 17.4021 8.53535L17.4028 8.53606Z" fill="#E0E0E0"/>
</svg>
