<svg width="24" height="24" viewBox="0 0 24 24" fill="none" xmlns="http://www.w3.org/2000/svg">
<path fill-rule="evenodd" clip-rule="evenodd" d="M9.25947 5.25H4C3.58579 5.25 3.25 5.58579 3.25 6C3.25 6.41421 3.58579 6.75 4 6.75H5.29834L6.25166 21.0499C6.27793 21.4439 6.60515 21.75 7 21.75H18C18.3948 21.75 18.7221 21.4439 18.7483 21.0499L19.7017 6.75H21C21.4142 6.75 21.75 6.41421 21.75 6C21.75 5.58579 21.4142 5.25 21 5.25H15.7405C15.6129 3.57189 14.2108 2.25 12.5 2.25C10.7892 2.25 9.38713 3.57189 9.25947 5.25ZM10.7677 5.25H14.2323C14.111 4.40193 13.3816 3.75 12.5 3.75C11.6184 3.75 10.889 4.40193 10.7677 5.25ZM18.1983 6.75H6.80166L7.70166 20.25H17.2983L18.1983 6.75ZM8.94656 9.25191C9.35973 9.22239 9.71858 9.5334 9.74809 9.94656L10.2481 16.9466C10.2776 17.3597 9.9666 17.7186 9.55344 17.7481C9.14027 17.7776 8.78142 17.4666 8.75191 17.0534L8.25191 10.0534C8.22239 9.64027 8.5334 9.28142 8.94656 9.25191ZM16.0534 9.25191C16.4666 9.28142 16.7776 9.64027 16.7481 10.0534L16.2481 17.0534C16.2186 17.4666 15.8597 17.7776 15.4466 17.7481C15.0334 17.7186 14.7224 17.3597 14.7519 16.9466L15.2519 9.94656C15.2814 9.5334 15.6403 9.22239 16.0534 9.25191ZM12.5 9.25C12.9142 9.25 13.25 9.58579 13.25 10V17C13.25 17.4142 12.9142 17.75 12.5 17.75C12.0858 17.75 11.75 17.4142 11.75 17V10C11.75 9.58579 12.0858 9.25 12.5 9.25Z" fill="#F3F7FF"/>
</svg>
