<svg width="24" height="24" viewBox="0 0 24 24" fill="none" xmlns="http://www.w3.org/2000/svg">
<path d="M11 1C4.92545 1 0 5.92545 0 12C0 18.0746 4.92545 23 11 23C17.0746 23 22 18.0746 22 12C22 5.92545 17.0746 1 11 1ZM16.2864 9.29174C16.2937 9.40714 16.2937 9.52746 16.2937 9.64531C16.2937 13.2498 13.5487 17.4018 8.53237 17.4018C6.98549 17.4018 5.55156 16.9525 4.34353 16.179C4.56451 16.2036 4.77567 16.2134 5.00156 16.2134C6.27835 16.2134 7.45201 15.7812 8.3875 15.0496C7.18929 15.025 6.18259 14.2393 5.83884 13.1589C6.2587 13.2203 6.63683 13.2203 7.06897 13.1098C6.45201 12.9845 5.89746 12.6494 5.49955 12.1615C5.10164 11.6736 4.8849 11.0631 4.88616 10.4335V10.3991C5.2471 10.6029 5.67188 10.7281 6.11629 10.7453C5.74269 10.4963 5.4363 10.159 5.22429 9.76324C5.01228 9.36749 4.9012 8.92553 4.90089 8.47656C4.90089 7.9683 5.03348 7.50424 5.27165 7.10156C5.95646 7.94458 6.81099 8.63405 7.77971 9.12518C8.74843 9.61631 9.80966 9.8981 10.8944 9.95223C10.5089 8.09844 11.8937 6.59821 13.5585 6.59821C14.3442 6.59821 15.0513 6.92723 15.5498 7.45759C16.1661 7.34219 16.7554 7.11138 17.2808 6.80201C17.077 7.43304 16.6498 7.96585 16.0826 8.30223C16.6326 8.2433 17.1629 8.09107 17.654 7.87746C17.2833 8.42254 16.8192 8.90625 16.2864 9.29174V9.29174Z" fill="#E0E0E0"/>
</svg>
